<?xml version="1.0" encoding="utf-8"?>
<!-- Generator: Adobe Illustrator 19.0.0, SVG Export Plug-In . SVG Version: 6.00 Build 0)  -->
<svg version="1.1" id="Layer_1" xmlns="http://www.w3.org/2000/svg" xmlns:xlink="http://www.w3.org/1999/xlink" x="0px" y="0px"
	 viewBox="0 0 532 370.3" style="enable-background:new 0 0 532 370.3;" xml:space="preserve">
<style type="text/css">
	.st0{fill:#EBEDFF;}
</style>
<g id="XMLID_1_">
	<path id="XMLID_3_" class="st0" d="M193.9,185.4c0.9-20-3.8-39.8-13.5-57.3c-1.5-2.7-2.8-5.6-3.8-8.6c-10.1-29.4,3.7-67,34.9-91.6
		c-15.8-2.9-31.3-7.1-46.6-12.6C135.7,4.9,98.1,2.7,78.7,9.4C24.3,28.1-3.6,80.9,9.7,119.5c1,3,2.3,5.9,3.8,8.6
		c9.7,17.5,14.5,37.3,13.5,57.3c-4.3,91,103.5,170,240.9,176.5c35.5,1.7,69.6-1.7,100.6-9.1C264.4,328.5,190.3,261.1,193.9,185.4z"
		/>
	<path id="XMLID_6_" class="st0" d="M524.4,208.9c4.3-91-30.5-192.5-240.9-176.5c-1.5,0.1-5.2,0.2-10.4,0.3
		c-20.8,0.5-41.4-1.1-61.7-4.8c-31.2,24.5-45,62.1-34.9,91.6c1,3,2.3,5.9,3.8,8.6c9.7,17.5,14.5,37.3,13.5,57.3
		c-3.6,75.7,70.5,143.1,174.6,167.3C457.3,331.4,521.2,276.3,524.4,208.9z"/>
</g>
</svg>
